<svg id="157844273" viewBox="0 0 281.25 258.75" height="258.75" width="281.25" style="width: 281.25px; height: 258.75px; position: absolute; top: 50%; left: 50%; transform: translate(-50%, -50%) scale(0.998261); z-index: 0; cursor: pointer; overflow: visible;"><defs id="SvgjsDefs2140"><linearGradient id="SvgjsLinearGradient2145"><stop id="SvgjsStop2146" stop-color="#2d388a" offset="0"></stop><stop id="SvgjsStop2147" stop-color="#00aeef" offset="1"></stop></linearGradient></defs><g id="SvgjsG2141" featurekey="QMusi1-0" transform="matrix(5.625,0,0,5.625,-39.375,-50.625)" fill="url(#SvgjsLinearGradient2145)"><metadata xmlns="http://www.w3.org/2000/svg"><sfw xmlns="http://ns.adobe.com/SaveForWeb/1.0/"><slices><slicesourcebounds y="-8160" x="-8165" width="16389" height="16384" bottomleftorigin="true"></slicesourcebounds><optimizationsettings><targetsettings fileformat="PNG24Format" targetsettingsid="0"><png24format transparency="true" mattecolor="" nomattecolor="false" interlaced="false" filtered="false"></png24format></targetsettings></optimizationsettings></slices></sfw></metadata><g xmlns="http://www.w3.org/2000/svg"><path d="M56,9H8c-0.552,0-1,0.448-1,1v44c0,0.553,0.448,1,1,1h48c0.553,0,1-0.447,1-1V10C57,9.448,56.553,9,56,9z M30.707,32.707   l-10,10C20.512,42.902,20.256,43,20,43s-0.512-0.098-0.707-0.293c-0.391-0.391-0.391-1.023,0-1.414L28.586,32l-9.293-9.293   c-0.391-0.391-0.391-1.023,0-1.414s1.023-0.391,1.414,0l10,10C31.098,31.684,31.098,32.316,30.707,32.707z M44,43H34   c-0.553,0-1-0.447-1-1s0.447-1,1-1h10c0.553,0,1,0.447,1,1S44.553,43,44,43z"></path></g></g><g id="SvgjsG2142" featurekey="UyNsn2-0" transform="matrix(0.7,0,0,0.7,301,130)" fill="#137dc5"><path d=""></path></g></svg>