<?xml version="1.0" standalone="no"?>
<!DOCTYPE svg PUBLIC "-//W3C//DTD SVG 20010904//EN"
 "http://www.w3.org/TR/2001/REC-SVG-20010904/DTD/svg10.dtd">
<svg version="1.0" xmlns="http://www.w3.org/2000/svg"
 width="281.000000pt" height="281.000000pt" viewBox="0 0 281.000000 281.000000"
 preserveAspectRatio="xMidYMid meet">
<metadata>
Created by potrace 1.14, written by Peter Selinger 2001-2017
</metadata>
<g transform="translate(0.000000,281.000000) scale(0.100000,-0.100000)"
fill="#000000" stroke="none">
<path d="M40 2692 c-41 -12 -40 16 -40 -1287 0 -1065 2 -1254 14 -1271 14 -19
40 -19 1387 -20 1322 -1 1373 0 1390 17 18 18 19 66 19 1274 0 1214 -1 1256
-19 1274 -18 18 -61 19 -1377 18 -748 0 -1366 -2 -1374 -5z m1010 -967 c162
-162 296 -301 298 -309 2 -9 -1 -23 -6 -31 -4 -9 -139 -146 -297 -306 -238
-237 -294 -289 -317 -289 -32 0 -58 32 -50 63 3 12 124 141 269 286 l264 264
-33 35 c-18 19 -138 139 -267 268 -241 240 -254 259 -221 299 35 42 54 27 360
-280z m1056 -833 c36 -24 33 -86 -5 -100 -11 -4 -151 -7 -312 -6 -291 1 -292
1 -311 24 -23 29 -23 45 2 70 19 19 33 20 318 20 163 0 302 -4 308 -8z"/>
</g>
</svg>
