<?xml version="1.0" standalone="no"?>
<!DOCTYPE svg PUBLIC "-//W3C//DTD SVG 20010904//EN"
 "http://www.w3.org/TR/2001/REC-SVG-20010904/DTD/svg10.dtd">
<svg version="1.0" xmlns="http://www.w3.org/2000/svg"
 width="562.000000pt" height="562.000000pt" viewBox="0 0 562.000000 562.000000"
 preserveAspectRatio="xMidYMid meet">
<metadata>
Created by potrace 1.14, written by Peter Selinger 2001-2017
</metadata>
<g transform="translate(0.000000,562.000000) scale(0.100000,-0.100000)"
fill="#000000" stroke="none">
<path d="M55 5372 c-16 -10 -36 -30 -43 -43 -10 -19 -12 -522 -10 -2534 l3
-2511 30 -29 29 -30 2733 -3 c2432 -2 2737 0 2763 13 65 34 60 -175 60 2570 0
1834 -3 2502 -11 2518 -6 12 -23 32 -38 44 l-26 22 -2730 1 c-2630 0 -2731 -1
-2760 -18z m1462 -1347 c45 -32 1165 -1160 1174 -1182 5 -13 7 -34 5 -46 -3
-12 -5 -27 -5 -34 -1 -13 -1133 -1150 -1173 -1177 -64 -45 -168 11 -168 90 0
22 7 49 15 61 9 12 249 256 535 542 286 286 520 523 520 527 0 3 -239 245
-530 536 -292 292 -533 540 -536 553 -14 54 14 116 61 136 32 13 79 10 102 -6z
m2701 -2250 c64 -38 68 -134 7 -180 l-33 -26 -584 0 c-321 0 -594 3 -606 5
-26 6 -71 49 -73 69 0 7 -2 21 -4 31 -5 25 17 77 39 95 9 7 30 16 47 20 16 3
288 6 602 5 543 0 574 -1 605 -19z"/>
</g>
</svg>
